<svg xmlns="http://www.w3.org/2000/svg" xmlns:xlink="http://www.w3.org/1999/xlink" aria-hidden="true" role="img" class="iconify iconify--logos" width="31.88" height="32" preserveAspectRatio="xMidYMid meet" viewBox="0 0 256 257">
    <defs>
        <linearGradient id="IconifyId17f5976a68811e32d43" x1="-.828%" y1="50%" x2="100.499%" y2="50%">
            <stop offset="0%" stop-color="#41D1FF"></stop>
            <stop offset="100%" stop-color="#BD34FE"></stop>
        </linearGradient>
        <linearGradient id="IconifyId17f5976a68811e32d44" x1="103.376%" y1="48.337%" x2="-1.785%" y2="51.272%">
            <stop offset="0%" stop-color="#FFEA83"></stop>
            <stop offset="8.333%" stop-color="#FFDD35"></stop>
            <stop offset="100%" stop-color="#FFA800"></stop>
        </linearGradient>
    </defs>
    <path d="M255.153 63.961c-1.37-7.38-6.13-13.72-12.44-17.81c-6.3-4.09-13.8-5.74-21.03-4.62c-8.91 1.37-17.3 6-23.83 12.93c-6.17 6.55-10.22 14.87-11.78 23.83c-1.37 7.38 0 15.22 3.6 21.92c3.23 6.17 8.35 11.28 14.52 14.33c6.17 3.05 12.98 3.9 19.51 2.44c.65-.14 1.3-.29 1.95-.47V257l-1.95-.47c-7.92-1.83-15.42-5.75-21.2-11.4c-6.55-6.55-10.77-15.05-12.14-24.3c-1.56-9.63 0-19.5 3.98-28.08c3.98-8.59 10.4-15.74 18.3-20.6c8.55-5.24 18.53-7.56 28.22-6.55c9.68 1 18.9 5.2 26.25 11.95c7.34 6.75 12.33 15.78 14.24 25.73c2.1 11.02.14 22.5-5.18 32.22a45.42 45.42 0 0 1-13.08 17.88c-1.31.95-2.65 1.83-4.01 2.64l-2.67 1.5V63.961zm-109.28-4.9c-2.93-17.5-13.1-32.06-27.5-40.09c-14.4-8.02-31.42-9.68-46.7-4.63C56.3 19.33 42.48 30.08 33.53 44.57c-8.95 14.49-11.45 31.84-7.27 47.97c4.17 16.12 14.73 29.58 29.15 37.13c14.42 7.55 31.33 8.63 46.12 3.05c14.8-5.58 26.54-17.42 32.55-32.23c4.7-11.66 5.6-24.57 2.7-36.52z" fill="url(#IconifyId17f5976a68811e32d43)"></path>
    <path d="M104.97 19.34c-17.3-8.8-38.3-6.8-54.6 4.9C34.07 35.84 21.12 54.44 18.66 75.1c-2.46 20.66 5.38 41.29 20.9 55.9c15.53 14.61 38.05 21.05 59.2 16.96c21.14-4.1 38.53-18.4 46.3-37.3c7.76-18.9 5.8-41.08-5.2-58.4c-9.1-14.3-24.2-24.5-40.9-27.9z" fill="url(#IconifyId17f5976a68811e32d44)"></path>
</svg>
